<?xml version="1.0" encoding="UTF-8" standalone="no"?>
<!-- Created with Inkscape (http://www.inkscape.org/) -->
<svg xmlns:dc="http://purl.org/dc/elements/1.1/" xmlns:cc="http://creativecommons.org/ns#" xmlns:rdf="http://www.w3.org/1999/02/22-rdf-syntax-ns#" xmlns:svg="http://www.w3.org/2000/svg" xmlns="http://www.w3.org/2000/svg" xmlns:sodipodi="http://sodipodi.sourceforge.net/DTD/sodipodi-0.dtd" xmlns:inkscape="http://www.inkscape.org/namespaces/inkscape" width="39.660053mm" height="39.640476mm" viewBox="0 0 39.660053 39.640476" version="1.1" id="svg8" inkscape:version="0.92.3 (2405546, 2018-03-11)" sodipodi:docname="Profile.svg">
  <defs id="defs2">
    <filter height="17.3333" width="79.471901" y="129.41409" x="-2.9237001" filterUnits="userSpaceOnUse" id="Adobe_OpacityMaskFilter">
				<feFlood id="feFlood3726" result="back"/>

				<feBlend id="feBlend3728" mode="normal" in2="back" in="SourceGraphic"/>

			</filter>
  </defs>
  <sodipodi:namedview id="base" pagecolor="#ffffff" bordercolor="#666666" borderopacity="1.0" inkscape:pageopacity="0.0" inkscape:pageshadow="2" inkscape:zoom="1.979899" inkscape:cx="333.60607" inkscape:cy="41.561302" inkscape:document-units="mm" inkscape:current-layer="layer1" showgrid="false" inkscape:window-width="1920" inkscape:window-height="1012" inkscape:window-x="0" inkscape:window-y="0" inkscape:window-maximized="1" fit-margin-top="0" fit-margin-left="0" fit-margin-right="0" fit-margin-bottom="0"/>
  <metadata id="metadata5">
    <rdf:RDF>
      <cc:Work rdf:about="">
        <dc:format>image/svg+xml</dc:format>
        <dc:type rdf:resource="http://purl.org/dc/dcmitype/StillImage"/>
        <dc:title/>
      </cc:Work>
    </rdf:RDF>
  </metadata>
  <g inkscape:label="Layer 1" inkscape:groupmode="layer" id="layer1" transform="translate(-32.442199,-96.603651)">
    <g id="g3850" transform="translate(-46.480694,-2.4318825)">
      <path style="fill:#e6e6e6;fill-opacity:1;stroke-width:0.15496105" d="m 96.044262,138.59953 c -0.255686,-0.0397 -1.057609,-0.20903 -1.782052,-0.37617 -8.875431,-2.04771 -15.339317,-10.20525 -15.339317,-19.3585 0,-13.33603 13.116021,-22.937859 25.812187,-18.896287 10.43004,3.320197 16.22593,14.481547 12.91729,24.875287 -1.7901,5.62339 -6.22713,10.40902 -11.63867,12.55308 -2.20619,0.8741 -3.88098,1.17676 -6.792736,1.22756 -1.4915,0.026 -2.921016,0.0148 -3.176702,-0.025 z" id="path3856" inkscape:connector-curvature="0"/>
      <path style="fill:#8c8c8c;fill-opacity:1;stroke-width:0.15496105" d="m 95.424418,138.44293 c -2.38469,-0.42929 -5.603595,-1.69108 -7.32191,-2.87014 -0.633506,-0.4347 -0.658469,-0.4826 -0.655559,-1.25801 0.0037,-0.9931 0.379544,-3.87643 0.6232,-4.7813 0.114744,-0.42613 0.41848,-0.90683 0.838188,-1.32654 0.570865,-0.57086 0.620203,-0.6703 0.371715,-0.74917 -0.323753,-0.10275 -0.387857,-0.51633 -0.09282,-0.59882 1.422359,-0.39766 3.757503,-0.87834 4.096969,-0.84334 0.958738,0.0988 1.811664,-0.18415 2.313999,-0.76777 l 0.483709,-0.56199 1.185313,0.89214 c 0.651921,0.49068 1.273451,0.92596 1.381178,0.9673 0.107726,0.0413 0.778345,-0.35937 1.49027,-0.89046 l 1.29439,-0.96563 0.4823,0.56031 c 0.50023,0.58114 1.26541,0.82856 2.3642,0.76447 0.26799,-0.0156 1.16471,0.14761 1.99272,0.36274 0.82801,0.21514 1.67217,0.39115 1.87591,0.39115 0.26904,0 0.37044,0.0862 0.37044,0.31479 0,0.17313 -0.092,0.35009 -0.20447,0.39325 -0.13615,0.0522 0.04,0.32292 0.52729,0.8102 0.84424,0.84425 0.8486,0.86267 1.05179,4.44776 0.10797,1.90504 0.0928,2.36956 -0.0841,2.5746 -0.3809,0.44154 -3.4899,1.95094 -5.01651,2.43549 -0.81348,0.2582 -2.10353,0.57869 -2.86678,0.71219 -1.70612,0.29842 -4.805308,0.29212 -6.501456,-0.0132 z m 1.733611,-13.5224 c -2.117103,-0.85029 -4.047939,-3.1499 -4.815409,-5.73513 -0.302168,-1.01786 -0.301311,-0.94038 -0.0104,-0.94038 0.244236,0 0.243194,-0.0536 -0.03162,-1.62709 -0.06586,-0.37709 0.02588,-0.28929 0.48573,0.46488 1.423491,2.33456 2.217208,2.61971 4.893055,1.7579 l 1.076697,-0.34678 1.052449,0.33897 c 2.737419,0.88164 3.580309,0.60796 4.912669,-1.59513 0.33914,-0.56078 0.53131,-0.77602 0.48422,-0.54236 -0.26092,1.29459 -0.26511,1.54961 -0.0255,1.54961 0.29073,0 0.29138,-0.0779 -0.008,0.94038 -0.67185,2.28595 -2.49454,4.60223 -4.327,5.49876 -1.191491,0.58295 -2.599334,0.6732 -3.687003,0.23637 z m -4.501296,-9.10745 c -0.0545,-0.0545 -0.0991,-0.35768 -0.0991,-0.67374 0,-0.9665 -0.180202,-1.57877 -0.488383,-1.65936 -0.248224,-0.0649 -0.286422,-0.23885 -0.286422,-1.30421 0,-0.82438 -0.08176,-1.38743 -0.248226,-1.70933 -0.180446,-0.34894 -0.232773,-0.78603 -0.191633,-1.60072 0.05126,-1.01513 0.116154,-1.20641 0.688808,-2.03041 0.729973,-1.05036 2.144082,-2.09015 3.363001,-2.4728 1.097286,-0.34447 4.807122,-0.48102 5.975642,-0.21995 1.74251,0.3893 3.195,1.28107 4.05598,2.49022 0.65283,0.9168 1.00082,4.77787 0.47778,5.30092 -0.0962,0.0962 -0.17486,0.46658 -0.17486,0.82312 0,0.50817 -0.0641,0.66501 -0.29652,0.7258 -0.23346,0.0611 -0.31788,0.27088 -0.39694,0.98658 -0.0552,0.49997 -0.11356,1.00868 -0.12962,1.13046 -0.066,0.50068 -0.34452,0.12215 -0.41661,-0.56628 l -0.0775,-0.73987 -2.94426,-1.50253 c -3.001979,-1.53199 -5.368073,-2.44898 -6.319095,-2.44898 -0.456908,0 -0.624768,0.11803 -1.212096,0.85226 -0.737416,0.92186 -0.868065,1.43295 -0.898857,3.51625 -0.01427,0.96516 -0.143795,1.33989 -0.381114,1.10257 z" id="path3854" inkscape:connector-curvature="0"/>
      <path style="fill:#333333;fill-opacity:1;stroke-width:0.15496105" d="m 96.819067,138.6033 c -1.047896,-0.11246 -3.506738,-0.69674 -4.648831,-1.10469 -1.22638,-0.43805 -3.233498,-1.41613 -4.148069,-2.02136 l -0.612027,-0.40502 0.10248,-1.0917 c 0.115081,-1.22592 0.524579,-4.15863 0.656239,-4.69979 0.04736,-0.19465 0.385227,-0.64499 0.750822,-1.00076 0.575598,-0.56012 0.632122,-0.67068 0.421589,-0.82462 -0.362192,-0.26485 -0.126147,-0.68749 0.383959,-0.68749 0.237325,0 0.919183,-0.13946 1.515241,-0.30992 0.596057,-0.17046 1.467491,-0.31098 1.93652,-0.31227 1.167865,-0.003 2.04477,-0.29763 2.513711,-0.84395 l 0.393904,-0.45889 1.183966,0.89112 c 0.651182,0.49012 1.272106,0.92495 1.379833,0.96629 0.107726,0.0413 0.778683,-0.35962 1.491016,-0.89102 l 1.29514,-0.96618 0.40407,0.47382 c 0.45244,0.53055 1.39421,0.83116 2.6039,0.83116 0.40998,0 1.2331,0.13946 1.82916,0.30992 0.59606,0.17046 1.27792,0.30992 1.51524,0.30992 0.48316,0 0.7069,0.35378 0.43269,0.68418 -0.14174,0.17079 -0.0835,0.28317 0.28166,0.54316 0.95471,0.67981 1.07501,1.08189 1.27212,4.25169 0.20933,3.36631 0.39883,2.92883 -1.75589,4.0538 -2.86528,1.49595 -5.58604,2.2253 -8.628088,2.31293 -1.07278,0.0309 -2.22944,0.0263 -2.570355,-0.0103 z m 1.07549,-13.53025 c -1.525605,-0.3652 -3.464203,-1.93021 -4.4438,-3.58743 -0.766434,-1.29661 -1.315049,-2.92065 -1.043348,-3.08857 0.1397,-0.0863 0.169242,-0.356 0.101583,-0.92728 l -0.0954,-0.80553 0.597671,0.92471 c 0.859758,1.33021 1.456527,1.74079 2.530201,1.74079 0.474426,0 1.304633,-0.13856 1.844906,-0.30792 0.540272,-0.16936 1.156643,-0.30792 1.369714,-0.30792 0.213072,0 0.829443,0.13856 1.369716,0.30792 1.16094,0.36392 2.49977,0.39836 3.11513,0.0801 0.46244,-0.23914 1.18699,-1.07809 1.60999,-1.8642 l 0.25015,-0.46488 -0.0867,0.54236 c -0.0477,0.2983 -0.11262,0.62769 -0.14432,0.73197 -0.0317,0.10428 0.053,0.2515 0.18816,0.32715 0.221,0.12368 0.2119,0.2394 -0.0901,1.14699 -0.87803,2.63848 -2.8999,4.78864 -5.124013,5.44913 -0.892193,0.26495 -1.202849,0.28129 -1.949536,0.10256 z M 92.62547,114.68091 c -0.132259,-1.05781 -0.178538,-1.1669 -0.515188,-1.2145 -0.363345,-0.0514 -0.368362,-0.0744 -0.284109,-1.30361 0.0686,-1.00079 0.03517,-1.32853 -0.166932,-1.63698 -0.302301,-0.46137 -0.298131,-2.30778 0.0067,-2.95054 0.247028,-0.52094 2.048192,-1.43073 3.75423,-1.89631 1.956388,-0.53389 3.859591,-0.55966 5.725609,-0.0775 2.73654,0.70707 4.36823,1.68145 4.74929,2.83607 0.23093,0.69974 0.2412,2.8293 0.0157,3.25019 -0.0998,0.18617 -0.18137,0.65201 -0.18137,1.03521 0,0.60456 -0.0461,0.70329 -0.34866,0.74626 -0.31039,0.0441 -0.36476,0.17711 -0.49527,1.21172 l -0.1466,1.16221 -0.0942,-0.74686 c -0.10832,-0.85916 0.0583,-0.72178 -2.5569,-2.10868 -3.431547,-1.81986 -6.422827,-2.95683 -7.22816,-2.7474 -0.200711,0.0522 -0.696161,0.51243 -1.100996,1.02274 -0.721456,0.90941 -0.736293,0.95023 -0.747552,2.05669 -0.0063,0.62087 -0.06296,1.44266 -0.125869,1.82619 l -0.114384,0.69732 z" id="path3852" inkscape:connector-curvature="0"/>
    </g>
  </g>
</svg>